<svg width="18" height="24" viewBox="0 0 18 24" fill="none" xmlns="http://www.w3.org/2000/svg">
<g id="Frame" clip-path="url(#clip0_180_59)">
<path id="Vector" d="M9.02844 12C9.02844 9.79086 10.8193 8 13.0284 8C15.2375 8 17.0284 9.79091 17.0284 12C17.0284 14.2092 15.2375 16 13.0284 16C10.8192 16 9.02844 14.2091 9.02844 12Z" fill="#00BCFF"/>
<path id="Vector_2" d="M1.0296 20C1.0296 17.7909 2.82046 16 5.02959 16L7.16123 14.8746L9.02958 16V20C9.02958 22.2091 7.23872 24 5.02959 24C2.82046 24 1.0296 22.2091 1.0296 20Z" fill="#00CF7F"/>
<path id="Vector_3" d="M9.0287 0L6.85211 3.78141L9.0287 7.99997H12.9726C15.1817 7.99997 16.9726 6.20911 16.9726 3.99998C16.9726 1.79086 15.1817 0 12.9726 0H9.0287Z" fill="#FF7361"/>
<path id="Vector_4" d="M0.972656 3.99998C0.972656 6.20911 2.76352 7.99997 4.97264 7.99997L7.09453 8.81953L9.02874 7.99997V0H4.97259C2.76352 0 0.972656 1.79086 0.972656 3.99998Z" fill="#FF4D12"/>
<path id="Vector_5" d="M1.0296 12C1.0296 14.2091 2.82046 16 5.02959 16H9.02958V7.99994H5.02959C2.82046 7.99994 1.0296 9.79085 1.0296 12Z" fill="#B659FF"/>
</g>
<defs>
<clipPath id="clip0_180_59">
<rect width="16.0561" height="24" fill="white" transform="translate(0.972656)"/>
</clipPath>
</defs>
</svg>
