<svg width="16" height="16" viewBox="0 0 16 16" fill="none" xmlns="http://www.w3.org/2000/svg">
<g id="icons / gift-outline">
<path id="Vector" d="M8 3.24997V4.99997H9.75C10.0961 4.99997 10.4345 4.89733 10.7222 4.70504C11.01 4.51275 11.2343 4.23943 11.3668 3.91966C11.4992 3.59989 11.5339 3.24803 11.4664 2.90856C11.3988 2.56909 11.2322 2.25727 10.9874 2.01253C10.7427 1.76779 10.4309 1.60112 10.0914 1.5336C9.75194 1.46607 9.40007 1.50073 9.0803 1.63318C8.76053 1.76563 8.48722 1.98994 8.29493 2.27772C8.10264 2.56551 8 2.90385 8 3.24997V3.24997Z" stroke="#475569" stroke-miterlimit="10" stroke-linecap="round"/>
<path id="Vector_2" d="M8 3.24997C8 3.73309 8 4.99997 8 4.99997H6.25C5.90388 4.99997 5.56554 4.89733 5.27775 4.70504C4.98997 4.51275 4.76566 4.23943 4.63321 3.91966C4.50076 3.59989 4.4661 3.24803 4.53363 2.90856C4.60115 2.56909 4.76782 2.25727 5.01256 2.01253C5.25731 1.76779 5.56913 1.60112 5.90859 1.5336C6.24806 1.46607 6.59993 1.50073 6.9197 1.63318C7.23947 1.76563 7.51278 1.98994 7.70507 2.27772C7.89737 2.56551 8 2.90385 8 3.24997V3.24997Z" stroke="#475569" stroke-miterlimit="10" stroke-linecap="round"/>
<path id="Vector_3" d="M13 5H3C2.44772 5 2 5.44772 2 6V7.5C2 8.05228 2.44772 8.5 3 8.5H13C13.5523 8.5 14 8.05228 14 7.5V6C14 5.44772 13.5523 5 13 5Z" stroke="#475569" stroke-linecap="round" stroke-linejoin="round"/>
<path id="Vector_4" d="M13 8.5V13C13 13.3978 12.842 13.7794 12.5607 14.0607C12.2794 14.342 11.8978 14.5 11.5 14.5H4.5C4.10218 14.5 3.72064 14.342 3.43934 14.0607C3.15804 13.7794 3 13.3978 3 13V8.5" stroke="#475569" stroke-linecap="round" stroke-linejoin="round"/>
<path id="Vector_5" d="M8 5V14.5" stroke="#475569" stroke-linecap="round" stroke-linejoin="round"/>
</g>
</svg>
