<svg width="24" height="24" viewBox="0 0 24 24" fill="none" xmlns="http://www.w3.org/2000/svg">
<g id="invision">
<circle id="bg" cx="12" cy="12" r="10.5" fill="#FF3366"/>
<g id="invision_2">
<path d="M8.51953 8.14453C9.24441 8.14453 9.83203 7.55691 9.83203 6.83203C9.83203 6.10716 9.24441 5.51953 8.51953 5.51953C7.79466 5.51953 7.20703 6.10716 7.20703 6.83203C7.20703 7.55691 7.79466 8.14453 8.51953 8.14453ZM5.77734 9.26953L5.32031 10.9453H6.82031C6.51953 12.168 5.88984 14.7398 5.77734 15.2461C5.63672 15.8789 5.61325 17.6836 7.51172 17.6836C8.83679 17.6836 9.68197 16.8276 10.1534 16.1286L9.79688 17.5547H11.9297L13.043 13.0485C13.2012 12.2988 13.5735 10.8516 14.918 10.8516C16.5169 10.8516 15.9303 12.745 15.6428 13.6729C15.6311 13.7107 15.6199 13.7469 15.6094 13.7812C15.3938 14.4844 15.1641 15.3047 15.1641 15.8672C15.1641 16.5 15.457 17.6836 17.0977 17.6836C18.7383 17.6836 19.4375 16.0586 19.582 15.2461L18.75 14.9062C18.6914 15.3398 18.1641 16.2773 17.6719 16.2773C16.9981 16.2773 17.3365 15.1414 17.6978 13.929C17.858 13.3913 18.0227 12.8386 18.1055 12.3633C18.3149 11.1616 18.1055 9.11719 16.0195 9.11719C14.724 9.11719 13.7067 10.2716 13.2227 11.0731L13.6289 9.26953H10.3828L9.9375 10.9453H11.4492C11.4492 10.9453 10.5521 14.6012 10.4941 14.7158C9.88477 15.9199 8.9631 16.3241 8.27344 16.2773C7.72031 16.2398 7.78516 15.5742 7.88672 15.2461L9.38672 9.26953H5.77734Z" fill="white"/>
<path d="M8.51953 8.14453C9.24441 8.14453 9.83203 7.55691 9.83203 6.83203C9.83203 6.10716 9.24441 5.51953 8.51953 5.51953C7.79466 5.51953 7.20703 6.10716 7.20703 6.83203C7.20703 7.55691 7.79466 8.14453 8.51953 8.14453ZM5.77734 9.26953L5.32031 10.9453H6.82031C6.51953 12.168 5.88984 14.7398 5.77734 15.2461C5.63672 15.8789 5.61325 17.6836 7.51172 17.6836C8.83679 17.6836 9.68197 16.8276 10.1534 16.1286L9.79688 17.5547H11.9297L13.043 13.0485C13.2012 12.2988 13.5735 10.8516 14.918 10.8516C16.5169 10.8516 15.9303 12.745 15.6428 13.6729C15.6311 13.7107 15.6199 13.7469 15.6094 13.7812C15.3938 14.4844 15.1641 15.3047 15.1641 15.8672C15.1641 16.5 15.457 17.6836 17.0977 17.6836C18.7383 17.6836 19.4375 16.0586 19.582 15.2461L18.75 14.9062C18.6914 15.3398 18.1641 16.2773 17.6719 16.2773C16.9981 16.2773 17.3365 15.1414 17.6978 13.929C17.858 13.3913 18.0227 12.8386 18.1055 12.3633C18.3149 11.1616 18.1055 9.11719 16.0195 9.11719C14.724 9.11719 13.7067 10.2716 13.2227 11.0731L13.6289 9.26953H10.3828L9.9375 10.9453H11.4492C11.4492 10.9453 10.5521 14.6012 10.4941 14.7158C9.88477 15.9199 8.9631 16.3241 8.27344 16.2773C7.72031 16.2398 7.78516 15.5742 7.88672 15.2461L9.38672 9.26953H5.77734Z" fill="white"/>
</g>
</g>
</svg>
