<svg width="24" height="24" viewBox="0 0 24 24" fill="none" xmlns="http://www.w3.org/2000/svg">
<g id="marvel">
<path id="bg" fill-rule="evenodd" clip-rule="evenodd" d="M12 22.5C17.799 22.5 22.5 17.799 22.5 12C22.5 6.20101 17.799 1.5 12 1.5C6.20101 1.5 1.5 6.20101 1.5 12C1.5 17.799 6.20101 22.5 12 22.5Z" fill="#1FB6FF"/>
<path id="m" fill-rule="evenodd" clip-rule="evenodd" d="M10.9535 9.69088C11.7224 9.69923 10.3688 13.6904 10.5141 15.4255C10.6606 17.176 12.5976 16.672 12.4746 15.6643C12.2655 13.9511 13.4067 8.58287 14.564 8.58287C15.3761 8.58287 13.6646 12.2836 14.0014 14.6534C14.2242 16.2213 16.2465 15.6774 16.041 14.7478C15.3612 11.6711 17.4675 8.71428 17.2314 6.61933C17.1282 5.7027 16.5769 5.25443 16.0255 5.25004C14.0949 5.23519 12.6036 9.19438 12.6036 9.19438C12.6036 9.19438 12.7589 6.94411 11.2585 6.8615C8.96115 6.7349 6.68691 12.4843 6.75134 17.618C6.77187 19.2558 8.81022 18.9768 8.70304 17.6711C8.50372 15.2427 9.8576 9.67914 10.9535 9.69088Z" fill="white"/>
</g>
</svg>
