<svg width="16" height="16" viewBox="0 0 16 16" fill="none" xmlns="http://www.w3.org/2000/svg">
<g id="icons / receipt-outline">
<path id="Vector" d="M5 10.5V1.5L6 2L7 1.5L7.99813 2L9.00969 1.5L10 2L10.9934 1.5L11.9913 2L13 1.5L14.0003 2L15 1.5V8.5" stroke="#475569" stroke-linejoin="round"/>
<path id="Vector_2" d="M15.0001 8.5V12C15.0001 12.663 14.7367 13.2989 14.2678 13.7678C13.799 14.2366 13.1631 14.5 12.5001 14.5V14.5C11.837 14.5 11.2012 14.2366 10.7323 13.7678C10.2635 13.2989 10.0001 12.663 10.0001 12V10.5H1.50008C1.43426 10.4994 1.36898 10.512 1.30805 10.5369C1.24712 10.5618 1.19177 10.5986 1.14523 10.6451C1.09868 10.6917 1.06187 10.747 1.03695 10.808C1.01203 10.8689 0.999497 10.9342 1.00008 11C1.00008 13 1.21071 14.5 3.50008 14.5H12.5001" stroke="#475569" stroke-linejoin="round"/>
<path id="Vector_3" d="M7 4.5H13" stroke="#475569" stroke-linecap="round" stroke-linejoin="round"/>
<path id="Vector_4" d="M9 7H13" stroke="#475569" stroke-linecap="round" stroke-linejoin="round"/>
</g>
</svg>
