<svg width="16" height="16" viewBox="0 0 16 16" fill="none" xmlns="http://www.w3.org/2000/svg">
<g id="icons / rocket-outline">
<path id="Vector" d="M14.4316 1.68194C14.4263 1.6563 14.4137 1.6327 14.3955 1.61393C14.3772 1.59517 14.354 1.58201 14.3285 1.576C12.6291 1.16038 8.70346 2.64132 6.5744 4.76882C6.19495 5.14515 5.84896 5.55377 5.54034 5.99007C4.88409 5.93069 4.22784 5.98069 3.66909 6.22444C2.09127 6.91819 1.63221 8.73007 1.50409 9.50788C1.49714 9.5505 1.50011 9.59414 1.51275 9.63543C1.52539 9.67672 1.54737 9.71455 1.57699 9.74597C1.6066 9.7774 1.64305 9.80159 1.68352 9.81666C1.72399 9.83173 1.76738 9.83728 1.81034 9.83288L4.34377 9.55475C4.34553 9.74584 4.357 9.93671 4.37815 10.1266C4.39137 10.2579 4.44994 10.3804 4.54377 10.4732L5.52471 11.4541C5.61753 11.548 5.74021 11.6066 5.87159 11.6198C6.06036 11.6408 6.25008 11.6523 6.44002 11.6541L6.16221 14.1854C6.15787 14.2283 6.16346 14.2716 6.17853 14.312C6.19361 14.3524 6.21778 14.3888 6.24916 14.4184C6.28054 14.4479 6.3183 14.4699 6.35953 14.4825C6.40075 14.4952 6.44433 14.4982 6.4869 14.4913C7.26502 14.3663 9.08065 13.9073 9.77034 12.3298C10.0141 11.7704 10.0641 11.1176 10.0078 10.4644C10.4454 10.1561 10.8552 9.8101 11.2325 9.43038C13.3694 7.30538 14.841 3.466 14.4316 1.68194ZM9.33315 6.67757C9.1465 6.49096 9.01938 6.2532 8.96787 5.99435C8.91636 5.7355 8.94277 5.46718 9.04375 5.22334C9.14474 4.9795 9.31577 4.77108 9.53521 4.62444C9.75466 4.4778 10.0127 4.39954 10.2766 4.39954C10.5405 4.39954 10.7985 4.4778 11.018 4.62444C11.2374 4.77108 11.4084 4.9795 11.5094 5.22334C11.6104 5.46718 11.6368 5.7355 11.5853 5.99435C11.5338 6.2532 11.4067 6.49096 11.22 6.67757C11.0962 6.80163 10.9492 6.90005 10.7873 6.96721C10.6254 7.03437 10.4519 7.06894 10.2766 7.06894C10.1013 7.06894 9.92778 7.03437 9.76589 6.96721C9.604 6.90005 9.45695 6.80163 9.33315 6.67757V6.67757Z" stroke="#475569" stroke-linecap="round" stroke-linejoin="round"/>
<path id="Vector_2" d="M3.42625 11C3.11472 11.0382 2.8249 11.1795 2.60281 11.4012C2.05219 11.9537 2 14 2 14C2 14 4.0475 13.9478 4.59844 13.3966C4.82112 13.1748 4.96258 12.8845 5 12.5725" stroke="#475569" stroke-linecap="round" stroke-linejoin="round"/>
</g>
</svg>
