<svg width="16" height="16" viewBox="0 0 16 16" fill="none" xmlns="http://www.w3.org/2000/svg">
<g id="star (5) 1" clip-path="url(#clip0_1_1097)">
<g id="Layer 2">
<g id="star">
<path id="Vector" d="M11.7064 13.9999C11.5998 14.0004 11.4946 13.9752 11.3997 13.9266L7.99972 12.1466L4.59972 13.9266C4.48932 13.9847 4.36484 14.0106 4.24044 14.0014C4.11604 13.9922 3.9967 13.9484 3.89601 13.8747C3.79531 13.8011 3.71728 13.7007 3.6708 13.585C3.62431 13.4692 3.61124 13.3428 3.63305 13.2199L4.29972 9.46661L1.55305 6.79994C1.46736 6.71443 1.40657 6.60719 1.3772 6.48974C1.34784 6.37229 1.35102 6.24906 1.38639 6.13328C1.42503 6.01479 1.4961 5.90951 1.59155 5.82938C1.687 5.74925 1.803 5.69748 1.92639 5.67994L5.72639 5.12661L7.39972 1.70661C7.45431 1.5939 7.53954 1.49884 7.64566 1.43233C7.75178 1.36581 7.87448 1.33054 7.99972 1.33054C8.12496 1.33054 8.24766 1.36581 8.35378 1.43233C8.45989 1.49884 8.54513 1.5939 8.59972 1.70661L10.2931 5.11994L14.0931 5.67328C14.2164 5.69081 14.3324 5.74259 14.4279 5.82272C14.5233 5.90285 14.5944 6.00813 14.6331 6.12661C14.6684 6.24239 14.6716 6.36562 14.6422 6.48307C14.6129 6.60052 14.5521 6.70776 14.4664 6.79328L11.7197 9.45994L12.3864 13.2133C12.4102 13.3383 12.3977 13.4674 12.3505 13.5856C12.3032 13.7037 12.2232 13.8059 12.1197 13.8799C11.999 13.9645 11.8536 14.0067 11.7064 13.9999Z" fill="#1E293B"/>
</g>
</g>
</g>
<defs>
<clipPath id="clip0_1_1097">
<rect width="16" height="16" fill="white"/>
</clipPath>
</defs>
</svg>
