<svg width="16" height="16" viewBox="0 0 16 16" fill="none" xmlns="http://www.w3.org/2000/svg">
<g id="star">
<path id="Vector" d="M11.7294 13.5005L11.7169 13.4999L11.7044 13.4999C11.6782 13.5001 11.6524 13.494 11.629 13.4823L8.23163 11.7036L7.99972 11.5822L7.76781 11.7036L4.36781 13.4836L4.36701 13.4841C4.33941 13.4986 4.30829 13.5051 4.27719 13.5028C4.24609 13.5005 4.21626 13.4895 4.19108 13.4711C4.16591 13.4527 4.1464 13.4276 4.13478 13.3987C4.12316 13.3697 4.11989 13.3381 4.12535 13.3074L4.12535 13.3074L4.79201 9.55405L4.83843 9.29274L4.64801 9.10787L1.90464 6.4444C1.88406 6.4233 1.86943 6.3971 1.86228 6.36847C1.85532 6.34063 1.85567 6.31148 1.86326 6.28386C1.87321 6.25605 1.89038 6.23135 1.91304 6.21233L1.59279 5.83085L1.91304 6.21233C1.9369 6.1923 1.9659 6.17935 1.99675 6.17497L1.99843 6.17473L5.79843 5.62139L6.05954 5.58337L6.17551 5.34636L7.84884 1.92636L7.84885 1.92636L7.84972 1.92455C7.86337 1.89637 7.88468 1.87261 7.9112 1.85598C7.93773 1.83935 7.96841 1.83054 7.99972 1.83054C8.03103 1.83054 8.06171 1.83936 8.08823 1.85598L8.35378 1.43233L8.08823 1.85598C8.11476 1.87261 8.13607 1.89637 8.14972 1.92456L8.1497 1.92457L8.15181 1.92882L9.84514 5.34215L9.96163 5.57696L10.221 5.61473L14.021 6.16806L14.0227 6.1683C14.0535 6.17269 14.0825 6.18563 14.1064 6.20566C14.1291 6.22469 14.1462 6.24938 14.1562 6.27719C14.1638 6.30481 14.1641 6.33396 14.1572 6.3618C14.15 6.39042 14.1354 6.41662 14.1148 6.43772L11.3714 9.1012L11.181 9.28608L11.2274 9.54739L11.8941 13.3007L11.8941 13.3007L11.8952 13.3068C11.9012 13.3381 11.898 13.3704 11.8862 13.3999C11.8747 13.4286 11.8555 13.4536 11.8306 13.472C11.8009 13.4921 11.7654 13.5021 11.7294 13.5005Z" stroke="#1E293B"/>
</g>
</svg>
