<svg width="24" height="27" viewBox="0 0 24 27" fill="none" xmlns="http://www.w3.org/2000/svg">
<path fill-rule="evenodd" clip-rule="evenodd" d="M4.73679 15.1262L3.63821 15.5207L3.57922 18.7331L7.38215 17.3676C6.07779 16.9369 5.12527 16.1792 4.73679 15.1262Z" fill="#FDBD39"/>
<path fill-rule="evenodd" clip-rule="evenodd" d="M5.31172 11.7284L1.5 13.0971L3.63822 15.5206L4.7368 15.1261C4.34947 14.0762 4.58833 12.8894 5.31172 11.7284Z" fill="#F69833"/>
<path fill-rule="evenodd" clip-rule="evenodd" d="M11.7253 7.09298C6.87146 8.83592 3.7422 12.4325 4.73596 15.1261L22.3134 8.81438C21.3196 6.12072 16.5792 5.35003 11.7253 7.09298Z" fill="#FECF33"/>
<path fill-rule="evenodd" clip-rule="evenodd" d="M15.3241 16.8476C20.178 15.1046 23.3131 11.524 22.3135 8.81439L4.73602 15.1262C5.73565 17.8358 10.4702 18.5905 15.3241 16.8476Z" fill="#EE6723"/>
<path fill-rule="evenodd" clip-rule="evenodd" d="M22.3135 8.81439L4.73602 15.1262C5.08021 16.0591 6.39275 16.5187 8.23439 16.5187C10.0298 16.5187 12.3282 16.0822 14.7243 15.2218C19.5782 13.4788 22.9932 10.6569 22.3135 8.81439Z" fill="#F69833"/>
<path fill-rule="evenodd" clip-rule="evenodd" d="M18.816 7.42172C17.0205 7.42172 14.7222 7.85828 12.3261 8.71869C7.47219 10.4616 4.05715 13.2836 4.73691 15.1261L22.3143 8.81433C21.9702 7.88136 20.6576 7.42172 18.816 7.42172Z" fill="#FDBD39"/>
<path fill-rule="evenodd" clip-rule="evenodd" d="M17.8459 26.6175H17.8458C17.3286 26.6175 16.5656 26.1584 15.578 25.2528C14.4097 24.1814 13.0713 22.6122 11.8094 20.8342C10.5475 19.0563 9.51062 17.2788 8.88973 15.8292C8.21324 14.2494 8.11679 13.278 8.60304 12.9421C8.70966 12.8685 8.83818 12.8312 8.985 12.8312C9.38053 12.8312 10.1512 13.1207 11.5763 14.4997L11.6075 14.5298L11.6033 14.5727C11.5935 14.6718 11.5845 14.7717 11.5765 14.8698L11.5607 15.0647L11.4208 14.9262C9.88534 13.4056 9.20941 13.2415 8.99004 13.2415C8.92749 13.2415 8.87767 13.254 8.84196 13.2786C8.63104 13.4243 8.61747 14.1378 9.27332 15.6692C9.88314 17.093 10.9049 18.8437 12.1505 20.5985C13.3961 22.3536 14.714 23.8996 15.8615 24.9518C17.0989 26.0865 17.6565 26.209 17.8389 26.209C17.9018 26.209 17.953 26.1957 17.9909 26.1695C18.2134 26.0158 18.2137 25.2515 17.4823 23.6031L17.4487 23.5275L17.5222 23.4879C17.5957 23.4484 17.6668 23.4094 17.7335 23.3722L17.8215 23.323L17.8621 23.4144C18.3807 24.5823 18.8655 26.0668 18.2298 26.506C18.1226 26.58 17.9935 26.6175 17.8459 26.6175ZM17.8458 26.4374H17.8459L17.8458 26.5275L17.8458 26.4374Z" fill="#EE6723"/>
<path fill-rule="evenodd" clip-rule="evenodd" d="M15.4435 16.7985L15.4361 16.8883C15.3134 18.3808 14.9903 20.1751 14.1478 20.2477C14.1309 20.2492 14.1133 20.25 14.0957 20.25C13.5234 20.25 12.982 19.444 12.4865 17.8544C12.0177 16.3505 11.6539 14.3313 11.4621 12.1687C11.2703 10.0066 11.2732 7.95578 11.4702 6.39402C11.6849 4.69217 12.0937 3.80342 12.6851 3.7524C12.7026 3.75082 12.7207 3.75 12.7386 3.75C13.1538 3.75 13.7795 4.21209 14.42 6.3644L14.0018 6.44375C13.7879 5.7245 13.5548 5.13952 13.3235 4.73756C13.1094 4.36575 12.9013 4.161 12.7374 4.161C12.732 4.161 12.7266 4.16122 12.7213 4.16167C12.4649 4.1838 12.0916 4.79502 11.8834 6.44476C11.69 7.97851 11.6876 9.99862 11.8769 12.133C12.0662 14.2676 12.4241 16.2567 12.8845 17.7336C13.0907 18.3951 13.3169 18.9402 13.5386 19.3102C13.743 19.6513 13.9408 19.8392 14.0956 19.8392C14.1009 19.8392 14.1062 19.8389 14.1115 19.8385C14.3568 19.8174 14.819 19.1813 15.0136 16.9435L15.4435 16.7985Z" fill="#EE6723"/>
</svg>
